<?xml version="1.0" encoding="UTF-8"?>
<svg xmlns="http://www.w3.org/2000/svg" width="1700" height="560" viewBox="0 0 1700 560">
  <defs>
    <marker id="arrow" markerWidth="12" markerHeight="12" refX="9" refY="6" orient="auto" markerUnits="strokeWidth">
      <path d="M2,2 L10,6 L2,10 Z" fill="#344054"/>
    </marker>
  </defs>
  <style>
    .title { font: 700 28px -apple-system, BlinkMacSystemFont, "PingFang SC", "Microsoft YaHei", sans-serif; fill: #101828; }
    .subtitle { font: 400 15px -apple-system, BlinkMacSystemFont, "PingFang SC", "Microsoft YaHei", sans-serif; fill: #667085; }
    .label { font: 600 16px -apple-system, BlinkMacSystemFont, "PingFang SC", "Microsoft YaHei", sans-serif; fill: #182230; dominant-baseline: middle; }
    .edge-label { font: 600 14px -apple-system, BlinkMacSystemFont, "PingFang SC", "Microsoft YaHei", sans-serif; fill: #475467; paint-order: stroke; stroke: #F8FAFC; stroke-width: 5px; }
  </style>
  <rect x="0" y="0" width="1700" height="560" fill="#F8FAFC"/>
  <text x="48" y="54" class="title">目标流程：页面标注转成智能体上下文</text>
  <text x="48" y="82" class="subtitle">Chrome 插件负责点选、采集、生成上下文；智能体负责改代码</text>
  <line x1="200" y1="250" x2="235" y2="250" stroke="#344054" stroke-width="2.1" marker-end="url(#arrow)"/>
  <line x1="395" y1="250" x2="432.5" y2="250" stroke="#344054" stroke-width="2.1" marker-end="url(#arrow)"/>
  <line x1="577.5" y1="250" x2="615" y2="250" stroke="#344054" stroke-width="2.1" marker-end="url(#arrow)"/>
  <line x1="745" y1="250" x2="785" y2="250" stroke="#344054" stroke-width="2.1" marker-end="url(#arrow)"/>
  <line x1="965" y1="250" x2="1000" y2="250" stroke="#344054" stroke-width="2.1" marker-end="url(#arrow)"/>
  <line x1="1210" y1="250" x2="1245" y2="250" stroke="#344054" stroke-width="2.1" marker-end="url(#arrow)"/>
  <line x1="1405" y1="250" x2="1440" y2="250" stroke="#344054" stroke-width="2.1" marker-end="url(#arrow)"/>
  <line x1="1525" y1="288" x2="1525" y2="372" stroke="#344054" stroke-width="2.1" marker-end="url(#arrow)"/>
  <line x1="1445" y1="410" x2="1326" y2="410" stroke="#344054" stroke-width="2.1" marker-end="url(#arrow)"/>
  <line x1="1194" y1="410" x2="1125" y2="410" stroke="#344054" stroke-width="2.1" marker-end="url(#arrow)"/><text x="1159.5" y="401" text-anchor="middle" class="edge-label">是</text>
  <line x1="1260" y1="458" x2="1260" y2="481" stroke="#344054" stroke-width="2.1" marker-end="url(#arrow)"/><text x="1260" y="460.5" text-anchor="middle" class="edge-label">否</text>
  <rect x="40" y="212" width="160" height="76" rx="10" fill="#FFFFFF" stroke="#98A2B3" stroke-width="2"/><text x="120" y="250" text-anchor="middle" class="label">打开本地预览页</text>
  <rect x="235" y="212" width="160" height="76" rx="10" fill="#EEF4FF" stroke="#84ADFF" stroke-width="2"/><text x="315" y="250" text-anchor="middle" class="label">开启标注模式</text>
  <rect x="432.5" y="212" width="145" height="76" rx="10" fill="#FFFFFF" stroke="#98A2B3" stroke-width="2"/><text x="505" y="250" text-anchor="middle" class="label">选中元素</text>
  <rect x="615" y="212" width="130" height="76" rx="10" fill="#FFF6ED" stroke="#FDB022" stroke-width="2"/><text x="680" y="250" text-anchor="middle" class="label">输入反馈</text>
  <rect x="785" y="212" width="180" height="76" rx="10" fill="#F4F3FF" stroke="#9B8AFB" stroke-width="2"/><text x="875" y="250" text-anchor="middle" class="label">生成标注上下文</text>
  <rect x="1000" y="212" width="210" height="76" rx="10" fill="#FFFFFF" stroke="#98A2B3" stroke-width="2"/><text x="1105" y="250" text-anchor="middle" class="label">预览 Markdown / JSON</text>
  <rect x="1245" y="212" width="160" height="76" rx="10" fill="#FFFFFF" stroke="#98A2B3" stroke-width="2"/><text x="1325" y="250" text-anchor="middle" class="label">复制给智能体</text>
  <rect x="1440" y="212" width="170" height="76" rx="10" fill="#ECFDF3" stroke="#32D583" stroke-width="2"/><text x="1525" y="250" text-anchor="middle" class="label">智能体修改代码</text>
  <rect x="1445" y="372" width="160" height="76" rx="10" fill="#FFFFFF" stroke="#98A2B3" stroke-width="2"/><text x="1525" y="410" text-anchor="middle" class="label">回到页面验证</text>
  <polygon points="1260,362 1326,410 1260,458 1194,410" fill="#FFFAEB" stroke="#F79009" stroke-width="2"/><text x="1260" y="410" text-anchor="middle" class="label">是否完成？</text>
  <rect x="975" y="372" width="150" height="76" rx="10" fill="#ECFDF3" stroke="#32D583" stroke-width="2"/><text x="1050" y="410" text-anchor="middle" class="label">标记已处理</text>
  <rect x="1162.5" y="481" width="195" height="68" rx="10" fill="#FEF3F2" stroke="#F97066" stroke-width="2"/><text x="1260" y="515" text-anchor="middle" class="label">补充线程/重新标注</text>
  <g>
    <ellipse cx="500" cy="160" rx="9.02" ry="11.479999999999999" fill="#111827"/>
    <circle cx="496.72" cy="156.72" r="2.46" fill="#fff"/>
    <circle cx="504.1" cy="156.72" r="2.46" fill="#fff"/>
    <path d="M495.9,170.48 l-4,6.56" stroke="#111827" stroke-width="1.64" stroke-linecap="round"/>
    <path d="M504.1,170.48 l4,6.56" stroke="#111827" stroke-width="1.64" stroke-linecap="round"/>
    <path d="M507.02,158 q16,-8 28,-2" stroke="#111827" stroke-width="1.64" fill="none" stroke-linecap="round"/>
  </g>
  <g>
    <ellipse cx="900" cy="165" rx="8.58" ry="10.92" fill="#111827"/>
    <circle cx="896.88" cy="161.88" r="2.34" fill="#fff"/>
    <circle cx="903.9" cy="161.88" r="2.34" fill="#fff"/>
    <path d="M896.1,174.92 l-4,6.24" stroke="#111827" stroke-width="1.56" stroke-linecap="round"/>
    <path d="M903.9,174.92 l4,6.24" stroke="#111827" stroke-width="1.56" stroke-linecap="round"/>
    
  </g>
  <g>
    <ellipse cx="1430" cy="165" rx="8.58" ry="10.92" fill="#111827"/>
    <circle cx="1426.88" cy="161.88" r="2.34" fill="#fff"/>
    <circle cx="1433.9" cy="161.88" r="2.34" fill="#fff"/>
    <path d="M1426.1,174.92 l-4,6.24" stroke="#111827" stroke-width="1.56" stroke-linecap="round"/>
    <path d="M1433.9,174.92 l4,6.24" stroke="#111827" stroke-width="1.56" stroke-linecap="round"/>
    
  </g>
</svg>