<?xml version="1.0" encoding="UTF-8"?>
<svg xmlns="http://www.w3.org/2000/svg" width="1500" height="610" viewBox="0 0 1500 610">
  <defs>
    <marker id="arrow" markerWidth="12" markerHeight="12" refX="9" refY="6" orient="auto" markerUnits="strokeWidth">
      <path d="M2,2 L10,6 L2,10 Z" fill="#344054"/>
    </marker>
  </defs>
  <style>
    .title { font: 700 28px -apple-system, BlinkMacSystemFont, "PingFang SC", "Microsoft YaHei", sans-serif; fill: #101828; }
    .subtitle { font: 400 15px -apple-system, BlinkMacSystemFont, "PingFang SC", "Microsoft YaHei", sans-serif; fill: #667085; }
    .label { font: 600 16px -apple-system, BlinkMacSystemFont, "PingFang SC", "Microsoft YaHei", sans-serif; fill: #182230; dominant-baseline: middle; }
    .edge-label { font: 600 14px -apple-system, BlinkMacSystemFont, "PingFang SC", "Microsoft YaHei", sans-serif; fill: #475467; paint-order: stroke; stroke: #F8FAFC; stroke-width: 5px; }
  </style>
  <rect x="0" y="0" width="1500" height="610" fill="#F8FAFC"/>
  <text x="48" y="54" class="title">技术架构：Chrome 插件标注反馈层</text>
  <text x="48" y="82" class="subtitle">MV3 插件通过 content script 采集页面现场，通过 side panel 管理标注</text>
  <line x1="195" y1="300" x2="245" y2="210" stroke="#344054" stroke-width="2.1" marker-end="url(#arrow)"/>
  <line x1="435" y1="210" x2="490" y2="140" stroke="#344054" stroke-width="2.1" marker-end="url(#arrow)"/>
  <line x1="435" y1="210" x2="475" y2="285" stroke="#344054" stroke-width="2.1" marker-end="url(#arrow)"/>
  <line x1="665" y1="285" x2="735" y2="285" stroke="#344054" stroke-width="2.1" marker-end="url(#arrow)"/>
  <line x1="895" y1="285" x2="970" y2="220" stroke="#344054" stroke-width="2.1" marker-end="url(#arrow)"/>
  <line x1="650" y1="140" x2="715" y2="140" stroke="#344054" stroke-width="2.1" marker-end="url(#arrow)"/>
  <line x1="925" y1="140" x2="985" y2="140" stroke="#344054" stroke-width="2.1" marker-end="url(#arrow)"/>
  <line x1="195" y1="300" x2="215" y2="430" stroke="#344054" stroke-width="2.1" marker-end="url(#arrow)"/>
  <line x1="465" y1="430" x2="525" y2="430" stroke="#344054" stroke-width="2.1" marker-end="url(#arrow)"/>
  <line x1="665" y1="285" x2="820" y2="520" stroke="#344054" stroke-width="2.1" marker-end="url(#arrow)"/>
  <rect x="45" y="262" width="150" height="76" rx="10" fill="#EEF4FF" stroke="#84ADFF" stroke-width="2"/><text x="120" y="300" text-anchor="middle" class="label">Chrome 插件</text>
  <rect x="245" y="172" width="190" height="76" rx="10" fill="#FFFFFF" stroke="#98A2B3" stroke-width="2"/><text x="340" y="210" text-anchor="middle" class="label">Content Script</text>
  <rect x="490" y="102" width="160" height="76" rx="10" fill="#F4F3FF" stroke="#9B8AFB" stroke-width="2"/><text x="570" y="140" text-anchor="middle" class="label">页面标注层</text>
  <rect x="475" y="247" width="190" height="76" rx="10" fill="#FFFFFF" stroke="#98A2B3" stroke-width="2"/><text x="570" y="285" text-anchor="middle" class="label">DOM / 样式采集器</text>
  <rect x="735" y="247" width="160" height="76" rx="10" fill="#FFF6ED" stroke="#FDB022" stroke-width="2"/><text x="815" y="285" text-anchor="middle" class="label">标注协议层</text>
  <rect x="970" y="182" width="220" height="76" rx="10" fill="#FFFFFF" stroke="#98A2B3" stroke-width="2"/><text x="1080" y="220" text-anchor="middle" class="label">Markdown / JSON 导出</text>
  <rect x="715" y="102" width="210" height="76" rx="10" fill="#FFFFFF" stroke="#98A2B3" stroke-width="2"/><text x="820" y="140" text-anchor="middle" class="label">Side Panel / Popup</text>
  <rect x="985" y="102" width="250" height="76" rx="10" fill="#FFFFFF" stroke="#98A2B3" stroke-width="2"/><text x="1110" y="140" text-anchor="middle" class="label">Chrome Storage / IndexedDB</text>
  <rect x="215" y="392" width="250" height="76" rx="10" fill="#FFFFFF" stroke="#98A2B3" stroke-width="2"/><text x="340" y="430" text-anchor="middle" class="label">Background Service Worker</text>
  <rect x="525" y="392" width="270" height="76" rx="10" fill="#ECFDF3" stroke="#32D583" stroke-width="2"/><text x="660" y="419" text-anchor="middle" class="label">后续 MCP / 本</text><text x="660" y="441" text-anchor="middle" class="label">地智能体适配器</text>
  <rect x="820" y="482" width="160" height="76" rx="10" fill="#F2F4F7" stroke="#98A2B3" stroke-width="2"/><text x="900" y="520" text-anchor="middle" class="label">源码线索增强</text>
  <g>
    <ellipse cx="365" cy="120" rx="9.02" ry="11.479999999999999" fill="#111827"/>
    <circle cx="361.72" cy="116.72" r="2.46" fill="#fff"/>
    <circle cx="369.1" cy="116.72" r="2.46" fill="#fff"/>
    <path d="M360.9,130.48 l-4,6.56" stroke="#111827" stroke-width="1.64" stroke-linecap="round"/>
    <path d="M369.1,130.48 l4,6.56" stroke="#111827" stroke-width="1.64" stroke-linecap="round"/>
    <path d="M372.02,118 q16,-8 28,-2" stroke="#111827" stroke-width="1.64" fill="none" stroke-linecap="round"/>
  </g>
  <g>
    <ellipse cx="785" cy="165" rx="8.58" ry="10.92" fill="#111827"/>
    <circle cx="781.88" cy="161.88" r="2.34" fill="#fff"/>
    <circle cx="788.9" cy="161.88" r="2.34" fill="#fff"/>
    <path d="M781.1,174.92 l-4,6.24" stroke="#111827" stroke-width="1.56" stroke-linecap="round"/>
    <path d="M788.9,174.92 l4,6.24" stroke="#111827" stroke-width="1.56" stroke-linecap="round"/>
    
  </g>
</svg>